<svg width="25" height="24" viewBox="0 0 25 24" fill="none" xmlns="http://www.w3.org/2000/svg">
<g clip-path="url(#clip0_9_1267)">
<path d="M24.6779 7.05249C24.6194 5.77515 24.4166 4.90283 24.1199 4.13965C23.8187 3.33893 23.3463 2.61365 22.7358 2.01416C22.1365 1.40369 21.4111 0.931091 20.6104 0.6297C19.847 0.333252 18.9749 0.130554 17.6975 0.0725098C16.4178 0.013916 16.0089 0 12.75 0C9.49109 0 9.08221 0.013916 7.80249 0.0721435C6.52515 0.130554 5.65302 0.333435 4.88965 0.630066C4.08893 0.931274 3.36365 1.40369 2.76416 2.01416C2.15369 2.61346 1.68109 3.33875 1.3797 4.13947C1.08325 4.90283 0.880554 5.77515 0.82251 7.05231C0.763916 8.33221 0.75 8.74091 0.75 11.9998C0.75 15.2589 0.763916 15.6678 0.82251 16.9475C0.880737 18.2247 1.08362 19.097 1.38025 19.8604C1.68146 20.6609 2.15387 21.3864 2.76434 21.9857C3.36365 22.5961 4.08911 23.0685 4.88983 23.3698C5.65302 23.6666 6.52533 23.8693 7.80267 23.9277C9.08258 23.9861 9.49127 23.9998 12.7502 23.9998C16.0091 23.9998 16.418 23.9861 17.6977 23.9277C18.975 23.8693 19.8472 23.6666 20.6105 23.3698C22.2224 22.7465 23.4966 21.4722 24.1199 19.8604C24.4167 19.097 24.6194 18.2247 24.6779 16.9475C24.7361 15.6676 24.75 15.2589 24.75 12C24.75 8.74091 24.7361 8.33221 24.6779 7.05249ZM22.5178 16.8492C22.4645 18.0192 22.2689 18.6546 22.1047 19.0774C21.7009 20.124 20.8738 20.9511 19.8272 21.3549C19.4044 21.5191 18.769 21.7147 17.599 21.7679C16.3339 21.8258 15.9543 21.8379 12.75 21.8379C9.54547 21.8379 9.16608 21.8258 7.90082 21.7679C6.73096 21.7147 6.09558 21.5191 5.67261 21.3549C5.15149 21.1624 4.67999 20.8557 4.29291 20.4571C3.89429 20.07 3.58759 19.5987 3.39514 19.0774C3.2309 18.6546 3.03534 18.0192 2.98206 16.8492C2.92438 15.5839 2.91211 15.2043 2.91211 12.0002C2.91211 8.79584 2.92438 8.41644 2.98206 7.151C3.03552 5.98096 3.2309 5.34558 3.39514 4.92279C3.58759 4.40149 3.89447 3.92999 4.29291 3.54291C4.67999 3.14429 5.15149 2.83759 5.67279 2.64532C6.09558 2.4809 6.73096 2.28552 7.901 2.23206C9.16626 2.17438 9.54584 2.16211 12.75 2.16211H12.7498C15.954 2.16211 16.3336 2.17438 17.599 2.23224C18.769 2.28552 19.4042 2.48108 19.8272 2.64532C20.3483 2.83777 20.8198 3.14447 21.2069 3.54291C21.6055 3.92999 21.9122 4.40149 22.1045 4.92279C22.2689 5.34558 22.4645 5.98096 22.5178 7.151C22.5754 8.41626 22.5877 8.79584 22.5877 12C22.5877 15.2043 22.5756 15.5837 22.5178 16.8492Z" fill="#FB9333"/>
<path d="M12.7498 5.83789C9.34662 5.83789 6.58777 8.59692 6.58777 12.0001C6.58777 15.4033 9.34662 18.1622 12.7498 18.1622C16.1532 18.1622 18.912 15.4033 18.912 12.0001C18.912 8.59692 16.1532 5.83789 12.7498 5.83789ZM12.7498 16.0001C10.5408 15.9999 8.74988 14.2091 8.75006 11.9999C8.75006 9.79095 10.5408 8 12.75 8C14.9592 8.00018 16.7499 9.79095 16.7499 11.9999C16.7499 14.2091 14.959 16.0001 12.7498 16.0001Z" fill="#FB9333"/>
<path d="M20.5955 5.59442C20.5955 6.38965 19.9508 7.03436 19.1556 7.03436C18.3602 7.03436 17.7155 6.38965 17.7155 5.59442C17.7155 4.79901 18.3602 4.1543 19.1556 4.1543C19.9508 4.1543 20.5955 4.79901 20.5955 5.59442Z" fill="#FB9333"/>
</g>
<defs>
<clipPath id="clip0_9_1267">
<rect width="24" height="24" fill="white" transform="translate(0.75)"/>
</clipPath>
</defs>
</svg>
